<svg xmlns="http://www.w3.org/2000/svg" xmlns:xlink="http://www.w3.org/1999/xlink" width="73px" height="18px" viewBox="0 0 73 18" version="1.1">
    <!-- Generator: Sketch 55.1 (78136) - https://sketchapp.com -->
    <title>Slice 1</title>
    <desc>Created with Sketch.</desc>
    <g id="Page-1" stroke="none" stroke-width="1" fill="none" fill-rule="evenodd">
        <g id="firstmd" fill="#2C84EC" fill-rule="nonzero">
            <path d="M1.82880769,17.1153846 L1.82880769,7.94723077 L1.07223077,7.79146154 C0.812615385,7.73215385 0.601230769,7.63942308 0.438038462,7.51330769 C0.282269231,7.38723077 0.204384615,7.20176923 0.204384615,6.957 L0.204384615,5.59957692 L1.82880769,5.59957692 L1.82880769,5.43269231 C1.82880769,4.73542308 1.9475,4.07896154 2.18488462,3.46330769 C2.42965385,2.84023077 2.80423077,2.30246154 3.30861538,1.85 C3.81303846,1.39011538 4.45465385,1.02665385 5.2335,0.759615385 C6.01976923,0.492576923 6.95438462,0.359076923 8.03734615,0.359076923 C8.37111538,0.359076923 8.71603846,0.377615385 9.07207692,0.414692308 C9.42815385,0.444346154 9.73596154,0.492576923 9.99557692,0.559346154 L9.88430769,2.30619231 C9.86946154,2.49161538 9.77676923,2.614 9.60615385,2.67334615 C9.43553846,2.73269231 9.25380769,2.76234615 9.06096154,2.76234615 C8.28953846,2.76234615 7.65161538,2.82169231 7.14723077,2.94038462 C6.64284615,3.05907692 6.24226923,3.23707692 5.94557692,3.47446154 C5.65630769,3.70438462 5.45230769,3.99369231 5.33361538,4.34230769 C5.22238462,4.69092308 5.16673077,5.09146154 5.16673077,5.54396154 L5.16673077,5.59957692 L12.4880769,5.59957692 L12.4880769,17.1153846 L9.03869231,17.1153846 L9.03869231,7.95838462 L5.278,7.95838462 L5.278,17.1153846 L1.82880769,17.1153846 Z" id="Path"/>
            <path d="M15.3119231,17.1153846 L15.3119231,5.57734615 L17.3592308,5.57734615 C17.5296154,5.57734615 17.6707692,5.59215385 17.7819231,5.62184615 C17.9007692,5.6515 17.9969231,5.69973077 18.0711538,5.76646154 C18.1526923,5.82580769 18.2123077,5.90742308 18.2492308,6.01126923 C18.2938462,6.11511538 18.3307692,6.24119231 18.3603846,6.38953846 L18.5496154,7.46880769 C18.9723077,6.81607692 19.4473077,6.30053846 19.9738462,5.92223077 C20.5003846,5.54396154 21.0753846,5.35480769 21.6984615,5.35480769 C22.225,5.35480769 22.6476923,5.48088462 22.9669231,5.73311538 L22.5219231,8.26992308 C22.4919231,8.42569231 22.4326923,8.53696154 22.3438462,8.60369231 C22.2546154,8.66303846 22.1361538,8.69273077 21.9876923,8.69273077 C21.8615385,8.69273077 21.7130769,8.67788462 21.5426923,8.64819231 C21.3719231,8.61111538 21.1569231,8.59257692 20.8973077,8.59257692 C19.9923077,8.59257692 19.2803846,9.07473077 18.7611538,10.039 L18.7611538,17.1153846 L15.3119231,17.1153846 Z" id="Path"/>
            <path d="M31.5584615,8.103 C31.4692308,8.24396154 31.3726923,8.34407692 31.2688462,8.40342308 C31.1726923,8.46276923 31.0465385,8.49242308 30.8907692,8.49242308 C30.7276923,8.49242308 30.5642308,8.45907692 30.4011538,8.39230769 C30.2380769,8.31811538 30.06,8.24023077 29.8669231,8.15865385 C29.6815385,8.07703846 29.4703846,8.00288462 29.2330769,7.93611538 C28.9953846,7.86196154 28.7246154,7.82484615 28.4207692,7.82484615 C27.9830769,7.82484615 27.6453846,7.91015385 27.4080769,8.08076923 C27.1780769,8.24396154 27.0630769,8.47388462 27.0630769,8.77061538 C27.0630769,8.98569231 27.1373077,9.16373077 27.2857692,9.30465385 C27.4415385,9.44561538 27.6453846,9.57169231 27.8976923,9.68296154 C28.15,9.78680769 28.4353846,9.88696154 28.7546154,9.98338462 C29.0734615,10.0798077 29.3996154,10.1873462 29.7334615,10.3060385 C30.0673077,10.4247308 30.3938462,10.5656538 30.7126923,10.7288462 C31.0315385,10.8846154 31.3173077,11.0811923 31.5696154,11.3185385 C31.8215385,11.5485 32.0219231,11.8303462 32.1703846,12.1641538 C32.3261538,12.4979231 32.4038462,12.8985 32.4038462,13.3658077 C32.4038462,13.9369615 32.3,14.4636154 32.0923077,14.9457308 C31.8846154,15.4278846 31.5730769,15.8432692 31.1576923,16.1918846 C30.7496154,16.5405 30.2415385,16.8112692 29.6334615,17.0041154 C29.0326923,17.1969615 28.3392308,17.2933846 27.5526923,17.2933846 C27.1596154,17.2933846 26.7665385,17.2563077 26.3734615,17.1821538 C25.9803846,17.1079615 25.5984615,17.0078077 25.2273077,16.8817308 C24.8638462,16.7556154 24.5265385,16.6072692 24.215,16.4366538 C23.9034615,16.2586538 23.6361538,16.0695 23.4138462,15.8692308 L24.215,14.6008077 C24.3111538,14.4524615 24.4261538,14.3375 24.56,14.2558846 C24.6934615,14.1668846 24.8676923,14.1223846 25.0826923,14.1223846 C25.2830769,14.1223846 25.4611538,14.1668846 25.6169231,14.2558846 C25.78,14.3449231 25.9542308,14.4413462 26.1396154,14.5451923 C26.3253846,14.6490385 26.5403846,14.7454615 26.785,14.8344615 C27.0373077,14.9235 27.3526923,14.968 27.7307692,14.968 C27.9976923,14.968 28.2242308,14.9420385 28.4096154,14.8901154 C28.595,14.8307692 28.7434615,14.7528846 28.8546154,14.6564615 C28.9657692,14.5600385 29.0473077,14.4524615 29.0992308,14.3337692 C29.1511538,14.2151154 29.1773077,14.0927308 29.1773077,13.9666154 C29.1773077,13.7366538 29.0992308,13.5475385 28.9434615,13.3991538 C28.7876923,13.2508077 28.5838462,13.1247308 28.3315385,13.0208846 C28.0796154,12.9096154 27.79,12.8094615 27.4638462,12.7204615 C27.145,12.6240385 26.8184615,12.5164615 26.4846154,12.3978077 C26.1507692,12.2791154 25.8207692,12.1381923 25.4946154,11.975 C25.1753846,11.8043846 24.89,11.593 24.6376923,11.3408077 C24.3853846,11.0811923 24.1815385,10.7659231 24.0257692,10.3950385 C23.87,10.0241538 23.7919231,9.57542308 23.7919231,9.04876923 C23.7919231,8.55919231 23.885,8.09561538 24.0703846,7.65796154 C24.2630769,7.21292308 24.5488462,6.8235 24.9269231,6.48969231 C25.3053846,6.15588462 25.78,5.89257692 26.3511538,5.69973077 C26.9223077,5.49946154 27.59,5.39930769 28.3538462,5.39930769 C28.7692308,5.39930769 29.17,5.43638462 29.5553846,5.51057692 C29.9488462,5.58473077 30.3157692,5.68857692 30.6569231,5.82211538 C30.9984615,5.95561538 31.31,6.11511538 31.5915385,6.30053846 C31.8734615,6.47857692 32.1219231,6.67511538 32.3373077,6.89023077 L31.5584615,8.103 Z" id="Path"/>
            <path d="M38.355,17.2933846 C37.8061538,17.2933846 37.3203846,17.2155 36.8973077,17.0597308 C36.4819231,16.8965769 36.1296154,16.6703077 35.8403846,16.3810385 C35.5584615,16.0843462 35.3434615,15.7283077 35.195,15.3129231 C35.0465385,14.8975385 34.9726923,14.4339231 34.9726923,13.9221154 L34.9726923,7.95838462 L33.9934615,7.95838462 C33.8153846,7.95838462 33.6634615,7.90273077 33.5373077,7.79146154 C33.4111538,7.67280769 33.3480769,7.50219231 33.3480769,7.27965385 L33.3480769,5.93338462 L35.1838462,5.57734615 L35.8626923,2.76234615 C35.9515385,2.40630769 36.2038462,2.22830769 36.6192308,2.22830769 L38.4215385,2.22830769 L38.4215385,5.59957692 L41.2253846,5.59957692 L41.2253846,7.95838462 L38.4215385,7.95838462 L38.4215385,13.6884615 C38.4215385,13.9555 38.4846154,14.178 38.6107692,14.3560385 C38.7442308,14.5266538 38.9334615,14.6119615 39.1784615,14.6119615 C39.3042308,14.6119615 39.4080769,14.6008077 39.49,14.5785769 C39.5788462,14.5488846 39.6530769,14.5192308 39.7123077,14.4895385 C39.7792308,14.4524615 39.8384615,14.4228077 39.8903846,14.4005385 C39.9496154,14.3708846 40.0165385,14.3560385 40.0907692,14.3560385 C40.1946154,14.3560385 40.2761538,14.382 40.3353846,14.4339231 C40.4023077,14.4784231 40.4688462,14.5526154 40.5357692,14.6564615 L41.5815385,16.2920385 C41.1365385,16.6258077 40.6357692,16.878 40.0796154,17.0486154 C39.5230769,17.2118077 38.9484615,17.2933846 38.355,17.2933846 Z" id="Path"/>
            <path d="M43.2146154,17.1153846 L43.2146154,5.57734615 L45.3511538,5.57734615 C45.5661538,5.57734615 45.7442308,5.62553846 45.885,5.72196154 C46.0334615,5.81838462 46.1373077,5.96303846 46.1965385,6.15588462 L46.3857692,6.77896154 C46.5784615,6.57869231 46.7788462,6.39696154 46.9865385,6.23376923 C47.1942308,6.06319231 47.4169231,5.91853846 47.6542308,5.79984615 C47.8988462,5.67376923 48.1584615,5.57734615 48.4330769,5.51057692 C48.715,5.43638462 49.0226923,5.39930769 49.3565385,5.39930769 C50.0538462,5.39930769 50.6284615,5.58103846 51.0811538,5.9445 C51.5411538,6.30053846 51.8896154,6.77896154 52.1269231,7.37980769 C52.32,7.02376923 52.5534615,6.71965385 52.8280769,6.46742308 C53.1096154,6.21523077 53.4103846,6.01126923 53.7292308,5.8555 C54.0553846,5.69973077 54.3969231,5.58473077 54.7526923,5.51057692 C55.1161538,5.43638462 55.4761538,5.39930769 55.8319231,5.39930769 C56.4923077,5.39930769 57.0780769,5.49946154 57.59,5.69973077 C58.1019231,5.89257692 58.5284615,6.17815385 58.8696154,6.55646154 C59.2180769,6.92734615 59.4815385,7.38723077 59.6596154,7.93611538 C59.8376923,8.47761538 59.9265385,9.09326923 59.9265385,9.78311538 L59.9265385,17.1153846 L56.4773077,17.1153846 L56.4773077,9.78311538 C56.4773077,8.58888462 55.9653846,7.99176923 54.9419231,7.99176923 C54.4746154,7.99176923 54.0853846,8.14753846 53.7738462,8.45907692 C53.4696154,8.76319231 53.3173077,9.20453846 53.3173077,9.78311538 L53.3173077,17.1153846 L49.8684615,17.1153846 L49.8684615,9.78311538 C49.8684615,9.12292308 49.7384615,8.65934615 49.4788462,8.39230769 C49.2192308,8.12526923 48.8373077,7.99176923 48.3326923,7.99176923 C48.0211538,7.99176923 47.7246154,8.06223077 47.4426923,8.20315385 C47.1684615,8.34407692 46.9088462,8.53323077 46.6638462,8.77061538 L46.6638462,17.1153846 L43.2146154,17.1153846 Z" id="Path"/>
            <path d="M70.4815385,17.1153846 C70.2665385,17.1153846 70.085,17.0671538 69.9365385,16.9707308 C69.7953846,16.8743077 69.6953846,16.7296538 69.6361538,16.5368077 L69.3688462,15.6578077 C69.1392308,15.9026154 68.8980769,16.1251154 68.6457692,16.3254231 C68.3934615,16.5256923 68.1192308,16.7 67.8223077,16.8483462 C67.5330769,16.9892692 67.2180769,17.0968462 66.8765385,17.171 C66.5430769,17.2526154 66.1796154,17.2933846 65.7861538,17.2933846 C65.1853846,17.2933846 64.6292308,17.1598846 64.1173077,16.8928462 C63.6053846,16.6258077 63.1642308,16.2401154 62.7934615,15.7356923 C62.4223077,15.2313077 62.1296154,14.6156538 61.9142308,13.8887308 C61.7065385,13.1543846 61.6026923,12.3199231 61.6026923,11.3853077 C61.6026923,10.5248462 61.7215385,9.72746154 61.9588462,8.99311538 C62.1961538,8.25138462 62.53,7.61346154 62.9603846,7.07938462 C63.3976923,6.53792308 63.9207692,6.11511538 64.5292308,5.811 C65.1373077,5.50684615 65.8084615,5.35480769 66.5430769,5.35480769 C67.1361538,5.35480769 67.6369231,5.44380769 68.045,5.62184615 C68.4603846,5.79242308 68.835,6.01869231 69.1688462,6.30053846 L69.1688462,0.459192308 L72.6180769,0.459192308 L72.6180769,17.1153846 L70.4815385,17.1153846 Z M66.9880769,14.6453077 C67.24,14.6453077 67.4665385,14.6230769 67.6665385,14.5785769 C67.8742308,14.5266538 68.0634615,14.4561923 68.2342308,14.3671538 C68.4046154,14.2781538 68.5642308,14.1668846 68.7126923,14.0333846 C68.8684615,13.8998462 69.0203846,13.7440769 69.1688462,13.5660769 L69.1688462,8.67046154 C68.9015385,8.38119231 68.6161538,8.18088462 68.3119231,8.06965385 C68.0153846,7.95096154 67.7,7.89161538 67.3661538,7.89161538 C67.0473077,7.89161538 66.7542308,7.95465385 66.4873077,8.08076923 C66.2203846,8.20684615 65.9865385,8.41084615 65.7861538,8.69273077 C65.5934615,8.96715385 65.4415385,9.32692308 65.33,9.77196154 C65.2188462,10.2170385 65.1630769,10.7548077 65.1630769,11.3853077 C65.1630769,11.9935385 65.2076923,12.5053462 65.2969231,12.9207308 C65.3857692,13.3361154 65.5080769,13.6736154 65.6638462,13.9332308 C65.8273077,14.1854231 66.02,14.3671538 66.2426923,14.4784231 C66.465,14.5896923 66.7134615,14.6453077 66.9880769,14.6453077 Z" id="Shape"/>
        </g>
    </g>
</svg>